<svg width="245" height="266" viewBox="0 0 245 266" fill="none" xmlns="http://www.w3.org/2000/svg">
<line y1="-2.5" x2="249.639" y2="-2.5" transform="matrix(-0.785135 0.619325 -0.585815 -0.810445 196 0)" stroke="black" stroke-width="5"/>
<line x1="3" y1="156.286" x2="245" y2="156.286" stroke="black" stroke-width="5"/>
<rect y="154.607" width="6" height="4.17858" fill="black"/>
<path d="M2.70679 156.273L231 149.384" stroke="black"/>
<path d="M3 155.527L231 143.116" stroke="black"/>
<path d="M3.5 155.13L231 137.893" stroke="black"/>
<path d="M3.5 155.13L231 131.625" stroke="black"/>
<path d="M3.5 155.13L231 125.358" stroke="black"/>
<path d="M3.5 155.13L231 120.134" stroke="black"/>
<path d="M3.5 155.13L231 111.777" stroke="black"/>
<path d="M3.5 155.13L231 104.465" stroke="black"/>
<path d="M3.5 155.13L231 95.0628" stroke="black"/>
<path d="M3.5 155.13L231 84.6164" stroke="black"/>
<path d="M3.5 155.13L231 75.2146" stroke="black"/>
<path d="M3.5 155.13L231 64.7681" stroke="black"/>
<path d="M3.5 155.13L231 54.3217" stroke="black"/>
</svg>
